<svg width="188" height="80" viewBox="0 0 188 80" fill="none" xmlns="http://www.w3.org/2000/svg">
<path d="M187.5 40C187.5 42.5213 185.806 45.0875 182.319 47.659C178.846 50.2209 173.692 52.713 167.007 55.0989C153.642 59.8685 134.275 64.1724 110.309 67.7899C62.3846 75.0237 -3.83923 79.5 -77 79.5C-150.161 79.5 -216.385 75.0237 -264.309 67.7899C-288.275 64.1724 -307.642 59.8685 -321.007 55.0989C-327.692 52.713 -332.846 50.2209 -336.319 47.659C-339.806 45.0875 -341.5 42.5213 -341.5 40C-341.5 37.4787 -339.806 34.9125 -336.319 32.341C-332.846 29.7791 -327.692 27.287 -321.007 24.9011C-307.642 20.1315 -288.275 15.8276 -264.309 12.2101C-216.385 4.97631 -150.161 0.5 -77 0.5C-3.83923 0.5 62.3846 4.97631 110.309 12.2101C134.275 15.8276 153.642 20.1315 167.007 24.9011C173.692 27.287 178.846 29.7791 182.319 32.341C185.806 34.9125 187.5 37.4787 187.5 40Z" stroke="white"/>
</svg>
